<svg xmlns="http://www.w3.org/2000/svg" version="1.1" xmlns:xlink="http://www.w3.org/1999/xlink" xmlns:svgjs="http://svgjs.dev/svgjs" width="1000" height="1000" viewBox="0 0 1000 1000"><rect width="1000" height="1000" fill="#ffffff"></rect><g transform="matrix(0.7,0,0,0.7,149.57575757575756,395.31907186498785)"><svg viewBox="0 0 396 119" data-background-color="#ffffff" preserveAspectRatio="xMidYMid meet" height="300" width="1000" xmlns="http://www.w3.org/2000/svg" xmlns:xlink="http://www.w3.org/1999/xlink"><g id="tight-bounds" transform="matrix(1,0,0,1,0.2400000000000091,-0.18080739015977088)"><svg viewBox="0 0 395.52 119.36161478031954" height="119.36161478031954" width="395.52"><g><svg viewBox="0 0 607.4659660381471 183.32352" height="119.36161478031954" width="395.52"><g transform="matrix(1,0,0,1,211.94596603814713,54.02869146578803)"><svg viewBox="0 0 395.52 75.26613706842394" height="75.26613706842394" width="395.52"><g id="textblocktransform"><svg viewBox="0 0 395.52 75.26613706842394" height="75.26613706842394" width="395.52" id="textblock"><g><svg viewBox="0 0 395.52 48.497002724795635" height="48.497002724795635" width="395.52"><g transform="matrix(1,0,0,1,0,0)"><svg width="395.52" viewBox="2.8600001335144043 -35.5 295.6600036621094 36.2599983215332" height="48.497002724795635" data-palette-color="#ee3e38"><path d="M9.84-13.99L23.85-13.99 23.85-21Q23.85-22.44 23.3-23.72 22.75-25 21.8-25.95 20.85-26.9 19.57-27.45 18.29-28 16.85-28L16.85-28Q15.41-28 14.12-27.45 12.84-26.9 11.89-25.95 10.94-25 10.39-23.72 9.84-22.44 9.84-21L9.84-21 9.84-13.99ZM30.86-21L30.86 0 23.85 0 23.85-7.01 9.84-7.01 9.84 0 2.86 0 2.86-21Q2.86-23.9 3.96-26.45 5.05-29 6.95-30.91 8.84-32.81 11.39-33.91 13.94-35.01 16.85-35.01L16.85-35.01Q19.75-35.01 22.3-33.91 24.85-32.81 26.76-30.91 28.66-29 29.76-26.45 30.86-23.9 30.86-21L30.86-21ZM64.3-35.01L64.3-13.99Q64.3-11.08 63.21-8.53 62.11-5.98 60.2-4.09 58.3-2.2 55.75-1.1 53.2 0 50.29 0L50.29 0Q47.39 0 44.83-1.1 42.28-2.2 40.39-4.09 38.5-5.98 37.4-8.53 36.3-11.08 36.3-13.99L36.3-13.99 36.3-35.01 43.28-35.01 43.28-13.99Q43.28-12.55 43.83-11.28 44.38-10.01 45.33-9.06 46.29-8.11 47.57-7.56 48.85-7.01 50.29-7.01L50.29-7.01Q51.73-7.01 53.01-7.56 54.29-8.11 55.25-9.06 56.2-10.01 56.75-11.28 57.3-12.55 57.3-13.99L57.3-13.99 57.3-35.01 64.3-35.01ZM85.08-28L85.08 0 78.1 0 78.1-28 67.57-28 67.57-35.01 95.58-35.01 95.58-28 85.08-28ZM132.49-17.36L132.49-17.36Q132.49-14.87 131.84-12.56 131.19-10.25 130.02-8.24 128.85-6.23 127.19-4.57 125.53-2.91 123.53-1.72 121.53-0.54 119.21 0.11 116.89 0.76 114.4 0.76L114.4 0.76Q111.91 0.76 109.6 0.11 107.29-0.54 105.28-1.72 103.26-2.91 101.6-4.57 99.94-6.23 98.76-8.24 97.58-10.25 96.93-12.56 96.28-14.87 96.28-17.36L96.28-17.36Q96.28-19.85 96.93-22.17 97.58-24.49 98.76-26.49 99.94-28.49 101.6-30.15 103.26-31.81 105.28-32.98 107.29-34.16 109.6-34.8 111.91-35.45 114.4-35.45L114.4-35.45Q116.89-35.45 119.21-34.8 121.53-34.16 123.53-32.98 125.53-31.81 127.19-30.15 128.85-28.49 130.02-26.49 131.19-24.49 131.84-22.17 132.49-19.85 132.49-17.36ZM125.53-17.36L125.53-17.36Q125.53-19.65 124.65-21.69 123.77-23.73 122.27-25.23 120.77-26.73 118.73-27.61 116.69-28.49 114.4-28.49L114.4-28.49Q112.08-28.49 110.05-27.61 108.02-26.73 106.51-25.23 105-23.73 104.12-21.69 103.24-19.65 103.24-17.36L103.24-17.36Q103.24-15.06 104.12-13.05 105-11.04 106.51-9.52 108.02-8.01 110.05-7.13 112.08-6.25 114.4-6.25L114.4-6.25Q116.69-6.25 118.73-7.13 120.77-8.01 122.27-9.52 123.77-11.04 124.65-13.05 125.53-15.06 125.53-17.36ZM171.82-35.01L171.82-10.01Q171.82-7.84 171-5.92 170.18-4 168.75-2.58 167.32-1.15 165.41-0.33 163.49 0.49 161.32 0.49L161.32 0.49Q159.37 0.49 157.57-0.2 155.78-0.88 154.34-2.2L154.34-2.2Q152.9-0.88 151.09-0.2 149.28 0.49 147.33 0.49L147.33 0.49Q145.16 0.49 143.24-0.33 141.32-1.15 139.89-2.58 138.47-4 137.65-5.92 136.83-7.84 136.83-10.01L136.83-10.01 136.83-35.01 143.84-35.01 143.84-10.01Q143.84-9.28 144.11-8.63 144.37-7.98 144.85-7.51 145.33-7.03 145.96-6.76 146.6-6.49 147.33-6.49L147.33-6.49Q148.06-6.49 148.7-6.76 149.33-7.03 149.81-7.51 150.28-7.98 150.55-8.63 150.82-9.28 150.82-10.01L150.82-10.01 150.82-35.01 157.83-35.01 157.83-10.01Q157.83-9.28 158.1-8.63 158.36-7.98 158.84-7.51 159.32-7.03 159.95-6.76 160.59-6.49 161.32-6.49L161.32-6.49Q162.05-6.49 162.69-6.76 163.32-7.03 163.8-7.51 164.27-7.98 164.55-8.63 164.83-9.28 164.83-10.01L164.83-10.01 164.83-35.01 171.82-35.01ZM184.66-13.99L198.67-13.99 198.67-21Q198.67-22.44 198.12-23.72 197.57-25 196.62-25.95 195.67-26.9 194.38-27.45 193.1-28 191.66-28L191.66-28Q190.22-28 188.94-27.45 187.66-26.9 186.71-25.95 185.75-25 185.2-23.72 184.66-22.44 184.66-21L184.66-21 184.66-13.99ZM205.68-21L205.68 0 198.67 0 198.67-7.01 184.66-7.01 184.66 0 177.67 0 177.67-21Q177.67-23.9 178.77-26.45 179.87-29 181.76-30.91 183.65-32.81 186.21-33.91 188.76-35.01 191.66-35.01L191.66-35.01Q194.57-35.01 197.12-33.91 199.67-32.81 201.57-30.91 203.48-29 204.58-26.45 205.68-23.9 205.68-21L205.68-21ZM225.4-28L225.4 0 218.42 0 218.42-28 207.9-28 207.9-35.01 235.9-35.01 235.9-28 225.4-28ZM262.75-9.69L266.46-3.59Q264.02-1.49 260.99-0.37 257.97 0.76 254.72 0.76L254.72 0.76Q252.23 0.76 249.92 0.11 247.61-0.54 245.6-1.72 243.59-2.91 241.93-4.57 240.27-6.23 239.08-8.24 237.9-10.25 237.25-12.56 236.6-14.87 236.6-17.36L236.6-17.36Q236.6-19.85 237.25-22.17 237.9-24.49 239.08-26.5 240.27-28.52 241.93-30.18 243.59-31.84 245.6-33.02 247.61-34.2 249.92-34.85 252.23-35.5 254.72-35.5L254.72-35.5Q257.97-35.5 260.99-34.39 264.02-33.28 266.46-31.15L266.46-31.15 262.75-25.05Q261.21-26.71 259.11-27.6 257.01-28.49 254.72-28.49L254.72-28.49Q252.4-28.49 250.37-27.61 248.35-26.73 246.83-25.23 245.32-23.73 244.44-21.69 243.56-19.65 243.56-17.36L243.56-17.36Q243.56-15.06 244.44-13.05 245.32-11.04 246.83-9.52 248.35-8.01 250.37-7.13 252.4-6.25 254.72-6.25L254.72-6.25Q257.01-6.25 259.11-7.14 261.21-8.03 262.75-9.69L262.75-9.69ZM277.52-13.99L277.52 0 270.51 0 270.51-35.01 277.52-35.01 277.52-21 291.51-21 291.51-35.01 298.52-35.01 298.52 0 291.51 0 291.51-13.99 277.52-13.99Z" opacity="1" transform="matrix(1,0,0,1,0,0)" fill="#ee3e38" class="wordmark-text-0" data-fill-palette-color="primary" id="text-0"></path></svg></g></svg></g><g transform="matrix(1,0,0,1,0,59.94598114005449)"><svg viewBox="0 0 232.209792 15.320155928369461" height="15.320155928369461" width="232.209792"><g transform="matrix(1,0,0,1,0,0)"><svg width="232.209792" viewBox="3.5 -33.20000076293945 642.1400146484375 42" height="15.320155928369461" data-palette-color="#ee3e38"><path d="M26.55 0L12.65 0Q9.1 0 7.1-1 5.1-2 4.3-4 3.5-6 3.5-8.95L3.5-8.95 3.5-20.1Q3.5-24.9 5.65-27.18 7.8-29.45 12.65-29.45L12.65-29.45 27.7-29.45Q31.15-29.45 32.98-29.08 34.8-28.7 34.8-28.3L34.8-28.3 33.8-24.15Q32.95-24.3 28.78-24.48 24.6-24.65 16.65-24.65L16.65-24.65 14.1-24.65Q10.1-24.65 10.1-21.1L10.1-21.1 10.1-8.35Q10.1-6.65 10.98-5.73 11.85-4.8 14.1-4.8L14.1-4.8 16.15-4.8Q24.45-4.8 29.03-4.98 33.6-5.15 34.7-5.35L34.7-5.35 36.75-2.05Q36.75-1.8 35.93-1.3 35.1-0.8 32.9-0.4 30.7 0 26.55 0L26.55 0ZM46.85 0L40.75 0 40.75-22.4 44.85-22.4 46.75-21.4Q48.05-22.1 49.55-22.5 51.05-22.9 53.35-22.9L53.35-22.9Q57-22.9 59.27-22.1 61.55-21.3 62.3-20.9L62.3-20.9 60.55-16.55Q59.95-16.85 58.57-17.32 57.2-17.8 55.35-18.2 53.5-18.6 51.3-18.6L51.3-18.6 50.75-18.6Q48.35-18.6 47.62-17.65 46.9-16.7 46.85-14.5L46.85-14.5 46.85 0ZM74.95 0L72.4 0Q69.95 0 68.57-0.65 67.2-1.3 66.62-2.3 66.05-3.3 65.92-4.4 65.8-5.5 65.8-6.4L65.8-6.4 65.8-22.4 71.89-22.4 71.89-6.3Q71.84-5.2 72.62-4.75 73.4-4.3 74.3-4.3L74.3-4.3 84.2-4.3Q85.3-4.3 85.5-4.5 85.7-4.7 85.7-5.8L85.7-5.8 85.7-22.4 91.8-22.4 91.8 0 87.7 0 85.8-1Q83.8-0.6 81.07-0.3 78.34 0 74.95 0L74.95 0ZM101.34-25.55L101.34-25.55Q99.49-25.55 98.64-26.3 97.79-27.05 97.79-28.8L97.79-28.8Q97.79-30.6 98.62-31.33 99.44-32.05 101.34-32.05L101.34-32.05Q103.24-32.05 104.09-31.33 104.94-30.6 104.94-28.8L104.94-28.8Q104.94-27.1 104.09-26.33 103.24-25.55 101.34-25.55ZM104.39 0L98.29 0 98.29-22.4 104.39-22.4 104.39 0ZM130.74 0L116.59 0Q113.24 0 111.84-0.35 110.44-0.7 110.44-1.05L110.44-1.05 111.94-4.8Q113.39-4.65 117.27-4.48 121.14-4.3 126.84-4.3L126.84-4.3 129.34-4.3Q130.59-4.3 130.92-4.98 131.24-5.65 131.24-6.8L131.24-6.8Q131.24-7.95 130.87-8.65 130.49-9.35 129.34-9.35L129.34-9.35 117.04-9.35Q113.54-9.35 111.99-10.68 110.44-12 110.44-14.65L110.44-14.65 110.44-16.65Q110.44-17.35 110.59-18.3 110.74-19.25 111.34-20.2 111.94-21.15 113.29-21.78 114.64-22.4 117.04-22.4L117.04-22.4 130.84-22.4Q133.84-22.4 135.09-22.05 136.34-21.7 136.34-21.35L136.34-21.35 135.84-17.6Q134.39-17.75 130.49-17.93 126.59-18.1 120.94-18.1L120.94-18.1 118.44-18.1Q117.19-18.1 116.87-17.43 116.54-16.75 116.54-15.85L116.54-15.85Q116.54-14.9 116.87-14.28 117.19-13.65 118.44-13.65L118.44-13.65 130.74-13.65Q134.14-13.65 135.74-12.25 137.34-10.85 137.34-8.7L137.34-8.7 137.34-5.75Q137.34-4.85 137.22-3.85 137.09-2.85 136.49-1.98 135.89-1.1 134.54-0.55 133.19 0 130.74 0L130.74 0ZM146.39-25.55L146.39-25.55Q144.54-25.55 143.69-26.3 142.84-27.05 142.84-28.8L142.84-28.8Q142.84-30.6 143.66-31.33 144.49-32.05 146.39-32.05L146.39-32.05Q148.29-32.05 149.14-31.33 149.99-30.6 149.99-28.8L149.99-28.8Q149.99-27.1 149.14-26.33 148.29-25.55 146.39-25.55ZM149.44 0L143.34 0 143.34-22.4 149.44-22.4 149.44 0ZM162.09 0L155.99 0 155.99-22.4 160.09-22.4 162.09-21.4Q164.19-21.8 167.14-22.1 170.09-22.4 173.89-22.4L173.89-22.4 176.39-22.4Q178.89-22.4 180.24-21.7 181.59-21 182.16-19.95 182.74-18.9 182.86-17.82 182.99-16.75 182.99-16L182.99-16 182.99 0 176.89 0 176.89-16.1Q176.89-18.1 174.49-18.1L174.49-18.1 163.59-18.1Q162.64-18.1 162.36-17.93 162.09-17.75 162.09-17L162.09-17 162.09 0ZM207.68 8.8L205.18 8.8Q199.68 8.8 196.23 8.7 192.78 8.6 190.93 8.4 189.08 8.2 188.41 7.9 187.73 7.6 187.73 7.25L187.73 7.25 189.23 3.5Q190.03 3.75 192.06 4.13 194.08 4.5 197.23 4.5L197.23 4.5 205.78 4.5Q207.63 4.5 208.41 3.95 209.18 3.4 209.18 2L209.18 2 209.18-1Q207.03-0.6 204.11-0.3 201.18 0 197.38 0L197.38 0 194.88 0Q192.38 0 191.03-0.65 189.68-1.3 189.11-2.3 188.53-3.3 188.41-4.4 188.28-5.5 188.28-6.4L188.28-6.4 188.28-16Q188.28-16.75 188.41-17.82 188.53-18.9 189.11-19.95 189.68-21 191.06-21.7 192.43-22.4 194.88-22.4L194.88-22.4 197.43-22.4Q202.68-22.4 205.61-22.2 208.53-22 209.88-21.75L209.88-21.75 211.18-22.4 215.28-22.4 215.28 2.4Q215.28 3.3 215.01 4.4 214.73 5.5 213.93 6.5 213.13 7.5 211.63 8.15 210.13 8.8 207.68 8.8L207.68 8.8ZM196.78-4.3L196.78-4.3 207.63-4.3Q208.78-4.3 208.98-4.5 209.18-4.7 209.18-5.8L209.18-5.8 209.18-17.75Q207.48-17.85 204.88-17.98 202.28-18.1 199.33-18.1L199.33-18.1 196.78-18.1Q194.38-18.1 194.38-16.1L194.38-16.1 194.38-6.3Q194.33-4.3 196.78-4.3ZM245.83 0L237.83 0 229.78-22.4 236.78-22.4 240.83-9.7 242.13-5.25 242.63-5.25 243.38-9.2 246.83-22.4 254.83-22.4 258.48-9.2 259.18-5.25 259.68-5.25 261.03-9.8 264.83-22.4 271.83-22.4 271.03-19.35 263.83 0 255.83 0 251.68-13.75 251.18-16.1 250.68-16.1 250.08-13.75 245.83 0ZM278.88-25.55L278.88-25.55Q277.03-25.55 276.18-26.3 275.33-27.05 275.33-28.8L275.33-28.8Q275.33-30.6 276.15-31.33 276.98-32.05 278.88-32.05L278.88-32.05Q280.78-32.05 281.63-31.33 282.48-30.6 282.48-28.8L282.48-28.8Q282.48-27.1 281.63-26.33 280.78-25.55 278.88-25.55ZM281.93 0L275.83 0 275.83-22.4 281.93-22.4 281.93 0ZM298.72 0L297.17 0Q293.37 0 291.97-1.6 290.57-3.2 290.57-6.4L290.57-6.4 290.57-18.1 286.47-18.1 286.47-22.4 288.57-22.4Q289.52-22.4 289.95-22.7 290.37-23 290.57-23.9L290.57-23.9 291.57-29.25 296.67-29.25 296.67-22.4 307.07-22.4 307.07-18.1 296.67-18.1 296.67-6.35Q296.67-5.1 297.27-4.7 297.87-4.3 299.07-4.3L299.07-4.3 306.12-4.3 306.62-0.5Q305.57-0.35 303.42-0.18 301.27 0 298.72 0L298.72 0ZM317.17 0L311.07 0 311.07-32.4 317.17-32.4 317.17-21.4Q319.27-21.8 322.22-22.1 325.17-22.4 328.97-22.4L328.97-22.4 331.47-22.4Q333.97-22.4 335.32-21.7 336.67-21 337.25-19.95 337.82-18.9 337.95-17.82 338.07-16.75 338.07-16L338.07-16 338.07 0 331.97 0 331.97-16.1Q331.97-18.1 329.57-18.1L329.57-18.1 318.67-18.1Q317.72-18.1 317.45-17.93 317.17-17.75 317.17-17L317.17-17 317.17 0ZM378.37 0L364.47 0Q360.92 0 358.92-1 356.92-2 356.12-4 355.32-6 355.32-8.95L355.32-8.95 355.32-20.1Q355.32-24.9 357.47-27.18 359.62-29.45 364.47-29.45L364.47-29.45 379.52-29.45Q382.97-29.45 384.79-29.08 386.62-28.7 386.62-28.3L386.62-28.3 385.62-24.15Q384.77-24.3 380.59-24.48 376.42-24.65 368.47-24.65L368.47-24.65 365.92-24.65Q361.92-24.65 361.92-21.1L361.92-21.1 361.92-8.35Q361.92-6.65 362.79-5.73 363.67-4.8 365.92-4.8L365.92-4.8 367.97-4.8Q376.27-4.8 380.84-4.98 385.42-5.15 386.52-5.35L386.52-5.35 388.57-2.05Q388.57-1.8 387.74-1.3 386.92-0.8 384.72-0.4 382.52 0 378.37 0L378.37 0ZM412.46 0L398.66 0Q395.31 0 393.69-1.35 392.06-2.7 392.06-5.75L392.06-5.75 392.06-16Q392.06-16.75 392.19-17.82 392.31-18.9 392.89-19.95 393.46-21 394.84-21.7 396.21-22.4 398.66-22.4L398.66-22.4 412.46-22.4Q414.96-22.4 416.31-21.7 417.66-21 418.24-19.95 418.81-18.9 418.94-17.82 419.06-16.75 419.06-16L419.06-16 419.06-6.4Q419.06-5.5 418.94-4.4 418.81-3.3 418.21-2.3 417.61-1.3 416.26-0.65 414.91 0 412.46 0L412.46 0ZM400.56-4.3L400.56-4.3 410.56-4.3Q413.01-4.3 413.01-6.3L413.01-6.3 413.01-16.1Q413.01-18.1 410.56-18.1L410.56-18.1 400.56-18.1Q398.16-18.1 398.16-16.1L398.16-16.1 398.16-6.3Q398.16-4.3 400.56-4.3ZM430.66 0L424.56 0 424.56-22.4 428.66-22.4 430.66-21.4Q432.76-21.8 435.71-22.1 438.66-22.4 442.46-22.4L442.46-22.4 444.96-22.4Q447.46-22.4 448.81-21.7 450.16-21 450.74-19.95 451.31-18.9 451.44-17.82 451.56-16.75 451.56-16L451.56-16 451.56 0 445.46 0 445.46-16.1Q445.46-18.1 443.06-18.1L443.06-18.1 432.16-18.1Q431.21-18.1 430.94-17.93 430.66-17.75 430.66-17L430.66-17 430.66 0ZM464.51 0L458.41 0 458.41-18.1 455.31-18.1 455.31-22.35 458.41-22.35 458.41-26.8Q458.41-28.5 459.08-29.95 459.76-31.4 461.33-32.3 462.91-33.2 465.51-33.2L465.51-33.2 468.01-33.2Q474.01-33.2 476.63-32.65 479.26-32.1 479.26-31.7L479.26-31.7 477.76-27.9Q476.91-28.25 474.71-28.58 472.51-28.9 469.41-28.9L469.41-28.9 466.91-28.9Q465.66-28.9 465.08-28.45 464.51-28 464.51-26.9L464.51-26.9 464.51-22.35 474.91-22.35 474.91-18.1 464.51-18.1 464.51 0ZM483.81-25.55L483.81-25.55Q481.96-25.55 481.11-26.3 480.26-27.05 480.26-28.8L480.26-28.8Q480.26-30.6 481.08-31.33 481.91-32.05 483.81-32.05L483.81-32.05Q485.71-32.05 486.56-31.33 487.41-30.6 487.41-28.8L487.41-28.8Q487.41-27.1 486.56-26.33 485.71-25.55 483.81-25.55ZM486.86 0L480.76 0 480.76-22.4 486.86-22.4 486.86 0ZM502 0L499.5 0Q497 0 495.65-0.65 494.3-1.3 493.73-2.3 493.15-3.3 493.03-4.4 492.9-5.5 492.9-6.4L492.9-6.4 492.9-16Q492.9-16.75 493.03-17.82 493.15-18.9 493.73-19.95 494.3-21 495.68-21.7 497.05-22.4 499.5-22.4L499.5-22.4 502.05-22.4Q506.65-22.4 509.48-22.23 512.3-22.05 513.8-21.85L513.8-21.85 513.8-31.7 519.9-31.7 519.9 0 515.8 0 513.85-1Q511.75-0.65 508.8-0.33 505.85 0 502 0L502 0ZM501.4-4.3L501.4-4.3 512.25-4.3Q513.3-4.3 513.55-4.55 513.8-4.8 513.8-5.8L513.8-5.8 513.8-17.75Q512.1-17.85 509.5-17.98 506.9-18.1 503.95-18.1L503.95-18.1 501.4-18.1Q499-18.1 499-16.1L499-16.1 499-6.3Q499-4.3 501.4-4.3ZM542.55 0L532.5 0Q530 0 528.65-0.65 527.3-1.3 526.73-2.3 526.15-3.3 526.02-4.4 525.9-5.5 525.9-6.4L525.9-6.4 525.9-16Q525.9-16.75 526.02-17.82 526.15-18.9 526.73-19.95 527.3-21 528.67-21.7 530.05-22.4 532.5-22.4L532.5-22.4 543.25-22.4Q546.55-22.4 548.42-21.78 550.3-21.15 551.07-19.75 551.85-18.35 551.85-16L551.85-16 551.85-8.6 543.1-8.6Q538.6-8.6 535.77-8.8 532.95-9 532-9.05L532-9.05 532-6.3Q531.95-4.3 534.4-4.3L534.4-4.3 536.95-4.3Q539.65-4.3 542.23-4.38 544.8-4.45 546.95-4.58 549.1-4.7 550.4-4.8L550.4-4.8 552.4-1.55Q552.4 0 542.55 0L542.55 0ZM532-16.1L532-12.9 545.75-12.9 545.75-16.1Q545.75-17.1 545.52-17.5 545.3-17.9 544.2-18 543.1-18.1 540.45-18.1L540.45-18.1 534.4-18.1Q532-18.1 532-16.1L532-16.1ZM563.5 0L557.4 0 557.4-22.4 561.5-22.4 563.5-21.4Q565.6-21.8 568.55-22.1 571.5-22.4 575.3-22.4L575.3-22.4 577.8-22.4Q580.3-22.4 581.65-21.7 583-21 583.57-19.95 584.15-18.9 584.27-17.82 584.4-16.75 584.4-16L584.4-16 584.4 0 578.3 0 578.3-16.1Q578.3-18.1 575.9-18.1L575.9-18.1 565-18.1Q564.05-18.1 563.77-17.93 563.5-17.75 563.5-17L563.5-17 563.5 0ZM606.29 0L596.24 0Q593.74 0 592.39-0.65 591.04-1.3 590.47-2.3 589.89-3.3 589.77-4.4 589.64-5.5 589.64-6.4L589.64-6.4 589.64-16Q589.64-16.75 589.77-17.82 589.89-18.9 590.47-19.95 591.04-21 592.42-21.7 593.79-22.4 596.24-22.4L596.24-22.4 603.19-22.4Q609.44-22.4 612.07-22.08 614.69-21.75 614.69-21.4L614.69-21.4 613.69-17.6Q612.29-17.7 610.14-17.82 607.99-17.95 605.52-18.03 603.04-18.1 600.69-18.1L600.69-18.1 598.14-18.1Q595.74-18.1 595.74-16.1L595.74-16.1 595.74-6.3Q595.69-4.3 598.14-4.3L598.14-4.3 600.69-4.3Q603.39-4.3 605.97-4.38 608.54-4.45 610.69-4.58 612.84-4.7 614.14-4.8L614.14-4.8 616.14-1.55Q616.14 0 606.29 0L606.29 0ZM635.79 0L625.74 0Q623.24 0 621.89-0.65 620.54-1.3 619.97-2.3 619.39-3.3 619.27-4.4 619.14-5.5 619.14-6.4L619.14-6.4 619.14-16Q619.14-16.75 619.27-17.82 619.39-18.9 619.97-19.95 620.54-21 621.92-21.7 623.29-22.4 625.74-22.4L625.74-22.4 636.49-22.4Q639.79-22.4 641.67-21.78 643.54-21.15 644.32-19.75 645.09-18.35 645.09-16L645.09-16 645.09-8.6 636.34-8.6Q631.84-8.6 629.02-8.8 626.19-9 625.24-9.05L625.24-9.05 625.24-6.3Q625.19-4.3 627.64-4.3L627.64-4.3 630.19-4.3Q632.89-4.3 635.47-4.38 638.04-4.45 640.19-4.58 642.34-4.7 643.64-4.8L643.64-4.8 645.64-1.55Q645.64 0 635.79 0L635.79 0ZM625.24-16.1L625.24-12.9 638.99-12.9 638.99-16.1Q638.99-17.1 638.77-17.5 638.54-17.9 637.44-18 636.34-18.1 633.69-18.1L633.69-18.1 627.64-18.1Q625.24-18.1 625.24-16.1L625.24-16.1Z" opacity="1" transform="matrix(1,0,0,1,0,0)" fill="#ee3e38" class="slogan-text-1" data-fill-palette-color="secondary" id="text-1"></path></svg></g></svg></g></svg></g></svg></g><g><svg viewBox="0 0 183.32352 183.32352" height="183.32352" width="183.32352"><g><svg viewBox="0 0 183.32352 183.32352" height="183.32352" width="183.32352"><g transform="matrix(1,0,0,1,48.451991952337444,82.26855668611533)"><svg viewBox="0 0 86.41953609532511 18.786406627769328" height="18.786406627769328" width="86.41953609532511"><g><svg xmlns="http://www.w3.org/2000/svg" xmlns:xlink="http://www.w3.org/1999/xlink" version="1.1" x="0" y="0" viewBox="4.416999816894531 40.09700012207031 91.83200073242188 19.963001251220703" enable-background="new 0 0 100 100" xml:space="preserve" height="18.786406627769328" width="86.41953609532511" class="icon-s-0" data-fill-palette-color="accent" id="s-0"><path d="M51.34 44.635c-0.545-1.163-1.728-1.914-3.012-1.914-0.488 0-0.962 0.106-1.409 0.315-0.804 0.377-1.413 1.044-1.715 1.88-0.217 0.599-0.253 1.232-0.12 1.839l6.69 0.811c0.038-0.124 0.07-0.252 0.089-0.39C51.961 46.453 51.78 45.574 51.34 44.635z" fill="#ee3e38" data-fill-palette-color="accent"></path><path d="M13.508 47.13l0.508-3.763c0.055-0.405-0.234-0.736-0.643-0.736H5.16c-0.409 0-0.743 0.334-0.743 0.743v9.173c0 0.409 0.334 0.743 0.743 0.743H7.64C7.988 50.15 10.413 47.627 13.508 47.13z" fill="#ee3e38" data-fill-palette-color="accent"></path><path d="M59.333 48.135l-0.01 0.005c0.286 0.532 0.164 0.973 0.154 1.006-0.183 0.607-0.821 1.083-1.455 1.083H54.44c-0.696 0-1.263-0.567-1.263-1.263v-0.181l-9.665-1.171c-0.406-0.049-0.738-0.424-0.738-0.833v-2.184c0-0.409 0.236-0.743 0.524-0.743 0.288 0 0.524-0.334 0.524-0.743V40.84c0-0.409-0.334-0.743-0.743-0.743h-1.66c-0.409 0-1.048 0.136-1.422 0.303l-20.144 8.98c0.885 0.986 1.497 2.224 1.712 3.591l1.554-0.736c0.807-0.383 2.138-0.71 3.03-0.745l19.049-0.756c1.104-0.04 2.064 0.8 2.179 1.884l0.648 6.132c0.027 0.259 0.003 0.511-0.066 0.746h16.74c0.408 0 0.58-0.455 0.245-0.689l-2.517-1.768c-0.334-0.234-0.275-0.46 0.132-0.5l5.163-0.514c-0.18-0.621-0.278-1.276-0.278-1.954 0-2.746 1.584-5.127 3.885-6.284H60.731C60.323 47.787 59.693 47.943 59.333 48.135z" fill="#ee3e38" data-fill-palette-color="accent"></path><path d="M46.199 59.745c0.242 0 0.457-0.091 0.604-0.256 0.149-0.165 0.217-0.39 0.191-0.631l-0.649-6.132c-0.056-0.526-0.533-0.955-1.064-0.955l-0.039 0.001-19.049 0.756c-0.747 0.03-1.95 0.325-2.626 0.646l-1.913 0.906c-0.003 2.154-0.98 4.084-2.513 5.372l27.046 0.293" fill="#ee3e38" data-fill-palette-color="accent"></path><path d="M95.526 52.599l-16.431-3.823c1.477 1.29 2.412 3.184 2.412 5.294 0 0.214-0.011 0.425-0.029 0.633l8.698-0.522c-0.026 0.079-0.043 0.162-0.043 0.247v0.798 0.276h3.932v-0.513-1.043l1.442-0.086c0.408-0.025 0.742-0.281 0.742-0.569S95.925 52.691 95.526 52.599z" fill="#ee3e38" data-fill-palette-color="accent"></path><path d="M54.218 48.966c0 0.121 0.103 0.223 0.223 0.223h3.582c0.174 0 0.393-0.158 0.453-0.324 0.023-0.215-0.246-0.708-1.447-1.109-1.274-0.425-1.977-0.488-2.281-0.488-0.143 0-0.207 0.014-0.208 0.014-0.15 0.048-0.321 0.28-0.321 0.462V48.966z" fill="#ee3e38" data-fill-palette-color="accent"></path><path d="M14.625 60.06c3.303 0 5.99-2.687 5.99-5.989s-2.687-5.99-5.99-5.99c-3.302 0-5.989 2.687-5.989 5.99S11.323 60.06 14.625 60.06zM14.625 50.83c1.79 0 3.241 1.452 3.241 3.241 0 1.79-1.451 3.241-3.241 3.241s-3.241-1.451-3.241-3.241C11.384 52.281 12.835 50.83 14.625 50.83z" fill="#ee3e38" data-fill-palette-color="accent"></path><path d="M80.468 54.07c0-3.303-2.687-5.99-5.989-5.99s-5.989 2.687-5.989 5.99 2.687 5.989 5.989 5.989S80.468 57.373 80.468 54.07zM74.479 57.312c-1.79 0-3.241-1.451-3.241-3.241 0-1.789 1.451-3.241 3.241-3.241s3.241 1.452 3.241 3.241C77.72 55.86 76.269 57.312 74.479 57.312z" fill="#ee3e38" data-fill-palette-color="accent"></path><path d="M90.091 56.542c-0.456 0-1.157-0.094-1.598-0.214l-1.449-0.396c-0.353-0.096-0.958-0.177-1.323-0.177h-2.533c-0.121 0-0.223 0.102-0.223 0.223v3.669c0 0.121 0.102 0.223 0.223 0.223h11.271c0.12 0 0.223-0.102 0.223-0.223v-2.883c0-0.121-0.103-0.223-0.223-0.223H90.091z" fill="#ee3e38" data-fill-palette-color="accent"></path></svg></g></svg></g><g><path d="M12.097 67.494l2.12-6.087-3.039-1.058c-0.422-0.147-0.845-0.206-1.271-0.179-0.428 0.034-0.829 0.142-1.202 0.322-0.365 0.176-0.694 0.422-0.987 0.736-0.287 0.316-0.503 0.685-0.65 1.107v0c-0.145 0.415-0.203 0.836-0.175 1.262 0.034 0.428 0.139 0.828 0.313 1.199 0.18 0.373 0.429 0.703 0.745 0.99 0.316 0.287 0.685 0.503 1.107 0.65v0zM12.237 57.31l9.117 3.175-1.059 3.039-3.048-1.062-2.12 6.087 3.048 1.062-1.058 3.039-9.117-3.175c-0.843-0.294-1.58-0.73-2.211-1.31-0.624-0.577-1.118-1.236-1.481-1.976-0.357-0.738-0.567-1.531-0.632-2.379-0.056-0.852 0.062-1.696 0.353-2.533v0c0.294-0.843 0.727-1.581 1.3-2.214 0.577-0.624 1.236-1.118 1.977-1.481 0.744-0.355 1.54-0.564 2.388-0.629 0.852-0.056 1.7 0.063 2.543 0.357z" fill="#ee3e38" data-fill-palette-color="accent"></path><path d="M21.331 31.457l7.767 5.749c0.718 0.531 1.291 1.162 1.719 1.894 0.43 0.741 0.705 1.517 0.827 2.327 0.117 0.816 0.078 1.637-0.119 2.461-0.195 0.834-0.557 1.61-1.088 2.328v0c-0.527 0.712-1.161 1.283-1.902 1.713-0.732 0.428-1.503 0.703-2.313 0.824-0.811 0.121-1.633 0.084-2.468-0.11-0.829-0.191-1.602-0.552-2.319-1.083v0l-7.768-5.749 1.914-2.587 7.768 5.75c0.353 0.262 0.738 0.442 1.153 0.542 0.41 0.096 0.82 0.113 1.23 0.052 0.41-0.061 0.799-0.2 1.166-0.417 0.368-0.217 0.682-0.502 0.944-0.856v0c0.266-0.359 0.448-0.746 0.549-1.16 0.1-0.415 0.117-0.825 0.052-1.23-0.061-0.41-0.196-0.8-0.403-1.169-0.217-0.368-0.502-0.682-0.856-0.944v0l-7.768-5.749z" fill="#ee3e38" data-fill-palette-color="accent"></path><path d="M40.1 19.349l7.587 10.411-2.593 1.89-7.587-10.411-3.917 2.854-1.895-2.6 10.411-7.587 1.895 2.601z" fill="#ee3e38" data-fill-palette-color="accent"></path><path d="M72.091 10.007v0c0.253 0.723 0.401 1.451 0.446 2.184 0.051 0.73 0.008 1.447-0.127 2.151-0.137 0.697-0.364 1.373-0.679 2.026-0.311 0.645-0.695 1.242-1.153 1.79-0.46 0.542-0.993 1.025-1.6 1.449-0.607 0.424-1.269 0.761-1.986 1.011v0c-0.723 0.253-1.451 0.401-2.184 0.446-0.733 0.044-1.451-0.001-2.154-0.137-0.706-0.142-1.381-0.368-2.027-0.678-0.654-0.315-1.251-0.703-1.793-1.163-0.55-0.464-1.033-0.998-1.448-1.6-0.422-0.601-0.759-1.263-1.012-1.986v0c-0.253-0.723-0.401-1.451-0.446-2.184-0.053-0.737-0.007-1.455 0.137-2.154 0.137-0.697 0.364-1.373 0.678-2.027 0.311-0.645 0.7-1.24 1.166-1.783 0.466-0.544 1-1.027 1.601-1.449 0.601-0.422 1.263-0.759 1.986-1.012v0c0.717-0.251 1.445-0.399 2.184-0.445 0.739-0.046 1.457-0.001 2.154 0.136 0.697 0.137 1.369 0.362 2.013 0.673 0.654 0.315 1.251 0.703 1.794 1.162 0.542 0.46 1.022 0.995 1.439 1.604 0.422 0.601 0.759 1.263 1.011 1.986zM69.072 11.062v0c-0.233-0.667-0.577-1.249-1.033-1.746-0.464-0.501-0.99-0.893-1.575-1.175-0.586-0.282-1.219-0.449-1.901-0.5-0.679-0.045-1.349 0.048-2.009 0.279v0c-0.673 0.235-1.258 0.581-1.755 1.036-0.501 0.464-0.893 0.99-1.175 1.576-0.289 0.588-0.455 1.221-0.5 1.9-0.053 0.675 0.036 1.346 0.269 2.013v0c0.233 0.667 0.58 1.244 1.039 1.733 0.456 0.497 0.981 0.889 1.576 1.175 0.586 0.282 1.219 0.449 1.9 0.5 0.673 0.047 1.346-0.047 2.019-0.282v0c0.66-0.231 1.242-0.575 1.745-1.034 0.501-0.464 0.893-0.99 1.175-1.575 0.28-0.592 0.447-1.225 0.501-1.9 0.049-0.667-0.042-1.333-0.276-2z" fill="#ee3e38" data-fill-palette-color="accent"></path><path d="M100.425 0l0.083 11.493c0.005 0.666-0.114 1.293-0.356 1.881-0.249 0.595-0.592 1.11-1.028 1.546-0.43 0.443-0.937 0.793-1.522 1.051-0.591 0.251-1.22 0.379-1.886 0.383v0c-0.6 0.004-1.173-0.095-1.721-0.297-0.554-0.203-1.053-0.505-1.496-0.909v0c-0.437 0.41-0.934 0.72-1.492 0.93-0.551 0.211-1.127 0.318-1.727 0.323v0c-0.666 0.005-1.293-0.114-1.881-0.357-0.588-0.249-1.104-0.592-1.547-1.028-0.436-0.43-0.783-0.94-1.04-1.531-0.257-0.584-0.389-1.21-0.393-1.876v0l-0.083-11.493 3.228-0.023 0.082 11.492c0.002 0.227 0.043 0.439 0.125 0.639 0.081 0.199 0.196 0.368 0.343 0.507 0.148 0.146 0.318 0.261 0.513 0.346 0.2 0.079 0.411 0.117 0.63 0.116v0c0.227-0.002 0.436-0.043 0.629-0.125 0.199-0.088 0.368-0.206 0.507-0.353 0.146-0.141 0.261-0.312 0.346-0.512 0.079-0.2 0.117-0.414 0.115-0.641v0l-0.082-11.492 3.227-0.024 0.083 11.493c0.002 0.227 0.043 0.439 0.125 0.639 0.081 0.199 0.196 0.368 0.343 0.507 0.148 0.146 0.318 0.261 0.512 0.346 0.2 0.079 0.411 0.117 0.631 0.115v0c0.227-0.002 0.436-0.043 0.629-0.124 0.193-0.088 0.362-0.206 0.507-0.354 0.146-0.141 0.261-0.312 0.346-0.512 0.085-0.201 0.127-0.414 0.125-0.64v0l-0.083-11.493z" fill="#ee3e38" data-fill-palette-color="accent"></path><path d="M115.936 13.169l6.124 2.012 1.005-3.057c0.139-0.424 0.191-0.849 0.155-1.274-0.042-0.428-0.156-0.826-0.343-1.196-0.183-0.362-0.434-0.686-0.753-0.974-0.321-0.281-0.694-0.491-1.119-0.63v0c-0.418-0.137-0.839-0.188-1.264-0.153-0.428 0.042-0.825 0.153-1.193 0.334-0.37 0.187-0.695 0.441-0.977 0.763-0.281 0.321-0.491 0.694-0.63 1.118v0zM126.122 13.129l-3.014 9.171-3.057-1.004 1.008-3.067-6.124-2.012-1.008 3.067-3.057-1.005 3.014-9.171c0.279-0.848 0.702-1.593 1.27-2.234 0.566-0.634 1.216-1.14 1.95-1.516 0.732-0.37 1.521-0.594 2.367-0.674 0.851-0.071 1.697 0.032 2.539 0.309v0c0.848 0.279 1.594 0.699 2.237 1.261 0.634 0.566 1.14 1.216 1.515 1.949 0.368 0.738 0.591 1.53 0.671 2.377 0.071 0.851-0.033 1.7-0.311 2.549z" fill="#ee3e38" data-fill-palette-color="accent"></path><path d="M145.108 20.702l-7.434 10.521-2.62-1.851 7.434-10.521-3.959-2.797 1.857-2.628 10.521 7.433-1.857 2.628z" fill="#ee3e38" data-fill-palette-color="accent"></path><path d="M158.757 46.428l-1.111 3.094c-0.966-0.179-1.877-0.522-2.733-1.031-0.851-0.503-1.589-1.141-2.212-1.913v0c-0.481-0.596-0.866-1.232-1.154-1.907-0.288-0.675-0.487-1.367-0.596-2.074-0.104-0.712-0.118-1.424-0.043-2.137 0.077-0.721 0.241-1.415 0.492-2.079 0.252-0.674 0.592-1.308 1.02-1.903 0.424-0.599 0.934-1.139 1.531-1.62v0c0.596-0.481 1.232-0.866 1.907-1.154 0.676-0.297 1.37-0.498 2.082-0.603 0.703-0.105 1.415-0.119 2.137-0.042 0.712 0.076 1.405 0.24 2.079 0.492 0.669 0.256 1.303 0.596 1.903 1.02 0.599 0.424 1.139 0.934 1.62 1.53v0c0.624 0.772 1.094 1.626 1.411 2.56 0.322 0.939 0.463 1.904 0.424 2.895v0l-3.259 0.434c0.101-0.681 0.055-1.359-0.138-2.033-0.193-0.674-0.51-1.284-0.95-1.828v0c-0.448-0.555-0.97-0.989-1.566-1.304-0.606-0.316-1.232-0.508-1.879-0.577-0.651-0.074-1.303-0.018-1.958 0.168-0.654 0.177-1.255 0.487-1.805 0.93v0c-0.55 0.444-0.977 0.964-1.282 1.562-0.315 0.597-0.507 1.223-0.577 1.878-0.069 0.646-0.013 1.299 0.168 1.958 0.182 0.65 0.497 1.252 0.944 1.807v0c0.439 0.544 0.968 0.982 1.587 1.313 0.618 0.331 1.271 0.519 1.958 0.564z" fill="#ee3e38" data-fill-palette-color="accent"></path><path d="M168.313 59.804l-5.953 2.448-1.227-2.985 14.89-6.124 1.227 2.986-5.961 2.451 2.448 5.953 5.961-2.452 1.224 2.976-14.89 6.124-1.224-2.977 5.952-2.447z" fill="#ee3e38" data-fill-palette-color="accent"></path><path d="M12.831 119.394l2.12 6.087 3.039-1.058c0.422-0.147 0.791-0.363 1.107-0.65 0.314-0.293 0.563-0.623 0.745-0.99 0.174-0.371 0.278-0.771 0.313-1.199 0.028-0.426-0.031-0.85-0.179-1.271v0c-0.145-0.415-0.36-0.781-0.646-1.098-0.293-0.314-0.623-0.563-0.99-0.745-0.373-0.18-0.773-0.285-1.199-0.313-0.426-0.028-0.85 0.031-1.271 0.179v0zM19.048 127.462l-9.117 3.175-1.058-3.039 3.048-1.062-2.12-6.087-3.048 1.062-1.059-3.039 9.117-3.175c0.843-0.294 1.692-0.409 2.546-0.347 0.848 0.065 1.644 0.274 2.389 0.628 0.738 0.357 1.396 0.847 1.973 1.472 0.579 0.631 1.015 1.364 1.306 2.201v0c0.294 0.843 0.409 1.692 0.347 2.546-0.065 0.848-0.274 1.644-0.629 2.389-0.363 0.74-0.857 1.399-1.481 1.976-0.633 0.573-1.371 1.007-2.214 1.3z" fill="#ee3e38" data-fill-palette-color="accent"></path><path d="M37.499 143.72l-7.776 5.756c-0.718 0.531-1.489 0.895-2.314 1.09-0.834 0.195-1.656 0.231-2.467 0.111-0.815-0.126-1.588-0.404-2.319-0.833-0.741-0.43-1.377-1.003-1.908-1.721v0c-0.527-0.712-0.888-1.485-1.083-2.319-0.196-0.825-0.233-1.642-0.112-2.453 0.121-0.811 0.396-1.587 0.826-2.328 0.424-0.737 0.995-1.371 1.713-1.902v0l7.776-5.755 1.914 2.587-7.776 5.755c-0.353 0.262-0.639 0.576-0.855 0.944-0.212 0.364-0.348 0.751-0.409 1.161-0.061 0.41-0.042 0.823 0.058 1.237 0.1 0.415 0.281 0.799 0.542 1.153v0c0.266 0.359 0.582 0.647 0.95 0.863 0.368 0.217 0.757 0.356 1.167 0.418 0.406 0.056 0.816 0.038 1.23-0.053 0.415-0.1 0.799-0.281 1.152-0.542v0l7.776-5.755z" fill="#ee3e38" data-fill-palette-color="accent"></path><path d="M48.15 156.747l-7.587 10.411-2.593-1.889 7.587-10.411-3.917-2.855 1.901-2.608 10.411 7.586-1.901 2.609z" fill="#ee3e38" data-fill-palette-color="accent"></path><path d="M73.369 173.479v0c-0.253 0.723-0.587 1.386-1.002 1.989-0.422 0.601-0.905 1.134-1.449 1.601-0.542 0.46-1.136 0.849-1.783 1.165-0.651 0.309-1.327 0.535-2.027 0.679-0.697 0.137-1.415 0.183-2.154 0.136-0.739-0.047-1.467-0.195-2.184-0.445v0c-0.723-0.253-1.385-0.59-1.986-1.012-0.601-0.422-1.134-0.905-1.601-1.449-0.464-0.55-0.852-1.148-1.162-1.793-0.315-0.654-0.541-1.329-0.679-2.026-0.141-0.706-0.187-1.424-0.136-2.154 0.044-0.733 0.193-1.461 0.446-2.184v0c0.253-0.723 0.59-1.385 1.011-1.986 0.418-0.609 0.9-1.143 1.449-1.601 0.542-0.46 1.14-0.847 1.793-1.162 0.645-0.311 1.319-0.534 2.023-0.669 0.704-0.135 1.422-0.181 2.154-0.137 0.733 0.044 1.461 0.193 2.184 0.446v0c0.717 0.251 1.379 0.588 1.986 1.011 0.607 0.424 1.141 0.907 1.601 1.449 0.46 0.542 0.849 1.136 1.165 1.784 0.309 0.651 0.532 1.326 0.67 2.023 0.137 0.697 0.183 1.415 0.136 2.154-0.051 0.73-0.202 1.457-0.455 2.181zM70.35 172.424v0c0.233-0.667 0.326-1.336 0.279-2.01-0.051-0.681-0.218-1.315-0.5-1.9-0.28-0.592-0.672-1.117-1.176-1.575-0.503-0.458-1.085-0.803-1.745-1.034v0c-0.673-0.235-1.346-0.329-2.019-0.282-0.679 0.045-1.313 0.212-1.9 0.5-0.592 0.28-1.117 0.672-1.575 1.176-0.462 0.495-0.81 1.076-1.043 1.742v0c-0.233 0.667-0.322 1.334-0.266 2.003 0.047 0.673 0.214 1.306 0.5 1.9 0.282 0.586 0.674 1.111 1.175 1.576 0.497 0.456 1.082 0.802 1.755 1.036v0c0.66 0.231 1.33 0.324 2.009 0.279 0.681-0.051 1.315-0.218 1.901-0.5 0.588-0.289 1.113-0.68 1.575-1.175 0.454-0.491 0.797-1.069 1.03-1.736z" fill="#ee3e38" data-fill-palette-color="accent"></path><path d="M100.579 167.029l-0.082 11.502c-0.005 0.666-0.136 1.292-0.393 1.876-0.257 0.591-0.604 1.102-1.041 1.532-0.443 0.437-0.958 0.779-1.546 1.028-0.595 0.242-1.225 0.361-1.892 0.356v0c-0.6-0.004-1.172-0.112-1.716-0.322-0.551-0.21-1.046-0.521-1.483-0.93v0c-0.443 0.403-0.941 0.706-1.495 0.909-0.561 0.203-1.141 0.302-1.741 0.297v0c-0.666-0.005-1.292-0.133-1.877-0.383-0.584-0.257-1.095-0.607-1.531-1.05-0.43-0.436-0.769-0.952-1.019-1.547-0.249-0.588-0.371-1.215-0.366-1.881v0l0.083-11.503 3.227 0.023-0.082 11.503c-0.002 0.227 0.037 0.44 0.115 0.64 0.079 0.2 0.191 0.371 0.337 0.513 0.146 0.148 0.318 0.265 0.517 0.353 0.193 0.081 0.399 0.123 0.618 0.124v0c0.227 0.002 0.437-0.037 0.631-0.115 0.201-0.085 0.375-0.201 0.522-0.346 0.141-0.139 0.255-0.308 0.344-0.507 0.081-0.199 0.123-0.412 0.124-0.639v0l0.082-11.503 3.228 0.024-0.082 11.502c-0.002 0.227 0.037 0.44 0.115 0.641 0.079 0.2 0.191 0.371 0.336 0.512 0.146 0.148 0.315 0.265 0.508 0.353 0.199 0.081 0.409 0.123 0.628 0.124v0c0.227 0.002 0.437-0.037 0.631-0.115 0.201-0.085 0.371-0.201 0.512-0.346 0.148-0.139 0.265-0.308 0.353-0.507 0.088-0.199 0.133-0.412 0.135-0.639v0l0.082-11.502z" fill="#ee3e38" data-fill-palette-color="accent"></path><path d="M115.693 173.237l6.124-2.013-1.004-3.057c-0.139-0.424-0.349-0.797-0.631-1.118-0.287-0.319-0.613-0.574-0.976-0.763-0.368-0.181-0.766-0.292-1.193-0.334-0.425-0.036-0.85 0.016-1.275 0.156v0c-0.418 0.137-0.787 0.346-1.108 0.627-0.319 0.287-0.574 0.613-0.763 0.977-0.187 0.37-0.298 0.768-0.334 1.193-0.036 0.425 0.016 0.85 0.156 1.274v0zM123.87 167.163l3.013 9.171-3.057 1.005-1.007-3.067-6.124 2.012 1.007 3.067-3.057 1.004-3.013-9.171c-0.279-0.848-0.379-1.699-0.302-2.552 0.08-0.847 0.303-1.639 0.671-2.377 0.37-0.732 0.872-1.38 1.506-1.946 0.641-0.568 1.382-0.991 2.224-1.268v0c0.848-0.279 1.699-0.379 2.552-0.301 0.847 0.08 1.639 0.303 2.376 0.67 0.734 0.376 1.384 0.881 1.95 1.516 0.562 0.643 0.982 1.388 1.261 2.237z" fill="#ee3e38" data-fill-palette-color="accent"></path><path d="M137.22 155.278l7.433 10.521-2.62 1.852-7.433-10.522-3.959 2.797-1.862-2.636 10.521-7.433 1.862 2.636z" fill="#ee3e38" data-fill-palette-color="accent"></path><path d="M161.232 142.714l3.258 0.434c0.029 0.982-0.115 1.945-0.431 2.889-0.312 0.938-0.78 1.794-1.403 2.566v0c-0.481 0.596-1.021 1.106-1.621 1.53-0.599 0.424-1.233 0.764-1.902 1.02-0.674 0.252-1.368 0.416-2.08 0.492-0.721 0.077-1.434 0.063-2.136-0.042-0.712-0.104-1.404-0.303-2.075-0.596-0.675-0.288-1.311-0.673-1.907-1.154v0c-0.596-0.481-1.106-1.021-1.53-1.621-0.433-0.598-0.776-1.234-1.028-1.908-0.256-0.669-0.42-1.362-0.492-2.08-0.076-0.712-0.062-1.424 0.042-2.136 0.109-0.708 0.308-1.4 0.596-2.075 0.288-0.675 0.673-1.311 1.154-1.907v0c0.624-0.772 1.358-1.412 2.205-1.919 0.85-0.512 1.764-0.854 2.74-1.025v0l1.112 3.094c-0.687 0.045-1.34 0.233-1.958 0.564-0.618 0.331-1.147 0.769-1.587 1.314v0c-0.448 0.555-0.763 1.157-0.944 1.806-0.186 0.655-0.242 1.307-0.168 1.958 0.065 0.652 0.257 1.278 0.577 1.879 0.311 0.602 0.741 1.124 1.29 1.568v0c0.55 0.444 1.149 0.752 1.797 0.924 0.65 0.182 1.302 0.238 1.958 0.168 0.646-0.069 1.273-0.261 1.878-0.577 0.597-0.315 1.119-0.749 1.567-1.305v0c0.439-0.544 0.756-1.154 0.949-1.828 0.193-0.674 0.24-1.352 0.139-2.033z" fill="#ee3e38" data-fill-palette-color="accent"></path><path d="M167.594 127.045l5.952 2.448-1.228 2.985-14.899-6.127 1.228-2.985 5.971 2.455 2.447-5.952-5.97-2.456 1.224-2.976 14.899 6.128-1.224 2.976-5.952-2.448z" fill="#ee3e38" data-fill-palette-color="accent"></path><path d="M1.982 93.572c0-3.445 2.793-6.238 6.238-6.238 3.445 0 6.238 2.793 6.238 6.238 0 3.445-2.793 6.238-6.238 6.238-3.445 0-6.238-2.793-6.238-6.238z" fill="#ee3e38" data-fill-palette-color="accent"></path><path d="M168.865 93.572c0-3.445 2.793-6.238 6.238-6.238 3.445 0 6.238 2.793 6.238 6.238 0 3.445-2.793 6.238-6.238 6.238-3.445 0-6.238-2.793-6.238-6.238z" fill="#ee3e38" data-fill-palette-color="accent"></path></g></svg></g></svg></g></svg></g><defs></defs></svg><rect width="395.52" height="119.36161478031954" fill="none" stroke="none" visibility="hidden"></rect></g></svg></g></svg>